<svg xmlns="http://www.w3.org/2000/svg" xmlns:xlink="http://www.w3.org/1999/xlink" width="2000" zoomAndPan="magnify" viewBox="0 0 1500 1499.999933" height="2000" preserveAspectRatio="xMidYMid meet" version="1.0"><defs><g/><clipPath id="52d60e045f"><rect x="0" width="970" y="0" height="204"/></clipPath></defs><rect x="-150" width="1800" fill="#ffffff" y="-149.999993" height="1799.99992" fill-opacity="1"/><rect x="-150" width="1800" fill="#ffffff" y="-149.999993" height="1799.99992" fill-opacity="1"/><g transform="matrix(1, 0, 0, 1, 265, 647)"><g clip-path="url(#52d60e045f)"><g fill="#2b364c" fill-opacity="1"><g transform="translate(2.508455, 161.96925)"><g><path d="M 5.578125 -101.109375 L 5.578125 -122.09375 L 105.203125 -122.09375 L 105.203125 -101.109375 L 68.015625 -101.109375 L 68.015625 0 L 42.9375 0 L 42.9375 -101.109375 Z M 5.578125 -101.109375 "/></g></g></g><g fill="#2b364c" fill-opacity="1"><g transform="translate(98.614705, 161.96925)"><g><path d="M 51.046875 1.796875 C 41.816406 1.796875 33.851562 -0.113281 27.15625 -3.9375 C 20.46875 -7.757812 15.304688 -13.164062 11.671875 -20.15625 C 8.046875 -27.144531 6.234375 -35.367188 6.234375 -44.828125 C 6.234375 -54.160156 8.035156 -62.335938 11.640625 -69.359375 C 15.242188 -76.378906 20.320312 -81.867188 26.875 -85.828125 C 33.425781 -89.785156 41.101562 -91.765625 49.90625 -91.765625 C 55.96875 -91.765625 61.59375 -90.78125 66.78125 -88.8125 C 71.96875 -86.851562 76.515625 -83.945312 80.421875 -80.09375 C 84.328125 -76.238281 87.359375 -71.429688 89.515625 -65.671875 C 91.671875 -59.910156 92.75 -53.257812 92.75 -45.71875 L 92.75 -38.921875 L 15.984375 -38.921875 L 15.984375 -54.328125 L 80.875 -54.328125 L 69.484375 -50.3125 C 69.484375 -55.007812 68.742188 -59.078125 67.265625 -62.515625 C 65.796875 -65.960938 63.625 -68.628906 60.75 -70.515625 C 57.882812 -72.398438 54.347656 -73.34375 50.140625 -73.34375 C 45.941406 -73.34375 42.363281 -72.382812 39.40625 -70.46875 C 36.457031 -68.550781 34.203125 -65.925781 32.640625 -62.59375 C 31.085938 -59.269531 30.3125 -55.445312 30.3125 -51.125 L 30.3125 -40.3125 C 30.3125 -35.226562 31.1875 -30.910156 32.9375 -27.359375 C 34.6875 -23.816406 37.160156 -21.128906 40.359375 -19.296875 C 43.554688 -17.460938 47.285156 -16.546875 51.546875 -16.546875 C 54.441406 -16.546875 57.078125 -16.96875 59.453125 -17.8125 C 61.828125 -18.664062 63.847656 -19.894531 65.515625 -21.5 C 67.179688 -23.113281 68.453125 -25.097656 69.328125 -27.453125 L 91.53125 -24.25 C 90.101562 -19.007812 87.546875 -14.4375 83.859375 -10.53125 C 80.171875 -6.625 75.554688 -3.59375 70.015625 -1.4375 C 64.472656 0.71875 58.148438 1.796875 51.046875 1.796875 Z M 51.046875 1.796875 "/></g></g></g><g fill="#2b364c" fill-opacity="1"><g transform="translate(197.261485, 161.96925)"><g><path d="M 10.078125 0 L 10.078125 -90.46875 L 33.765625 -90.46875 L 33.765625 -74.8125 L 34.578125 -74.8125 C 36.210938 -80.332031 38.941406 -84.5 42.765625 -87.3125 C 46.597656 -90.125 51.132812 -91.53125 56.375 -91.53125 C 57.6875 -91.53125 59.050781 -91.472656 60.46875 -91.359375 C 61.894531 -91.253906 63.125 -91.09375 64.15625 -90.875 L 64.15625 -69.234375 C 63.125 -69.566406 61.582031 -69.828125 59.53125 -70.015625 C 57.476562 -70.203125 55.5 -70.296875 53.59375 -70.296875 C 49.988281 -70.296875 46.722656 -69.503906 43.796875 -67.921875 C 40.867188 -66.335938 38.585938 -64.097656 36.953125 -61.203125 C 35.316406 -58.304688 34.5 -54.894531 34.5 -50.96875 L 34.5 0 Z M 10.078125 0 "/></g></g></g><g fill="#2b364c" fill-opacity="1"><g transform="translate(265.593302, 161.96925)"><g><path d="M 10.078125 0 L 10.078125 -90.46875 L 32.9375 -90.46875 L 33.921875 -68.421875 L 32.203125 -68.421875 C 33.617188 -73.878906 35.707031 -78.34375 38.46875 -81.8125 C 41.226562 -85.28125 44.460938 -87.832031 48.171875 -89.46875 C 51.890625 -91.113281 55.796875 -91.9375 59.890625 -91.9375 C 66.453125 -91.9375 71.847656 -89.882812 76.078125 -85.78125 C 80.316406 -81.6875 83.304688 -75.515625 85.046875 -67.265625 L 82.265625 -67.265625 C 83.523438 -72.835938 85.671875 -77.441406 88.703125 -81.078125 C 91.734375 -84.710938 95.335938 -87.429688 99.515625 -89.234375 C 103.691406 -91.035156 108.128906 -91.9375 112.828125 -91.9375 C 118.398438 -91.9375 123.382812 -90.71875 127.78125 -88.28125 C 132.175781 -85.851562 135.644531 -82.332031 138.1875 -77.71875 C 140.726562 -73.101562 142 -67.460938 142 -60.796875 L 142 0 L 117.5 0 L 117.5 -56.125 C 117.5 -61.3125 116.101562 -65.175781 113.3125 -67.71875 C 110.53125 -70.257812 107.09375 -71.53125 103 -71.53125 C 99.882812 -71.53125 97.191406 -70.859375 94.921875 -69.515625 C 92.660156 -68.179688 90.914062 -66.3125 89.6875 -63.90625 C 88.457031 -61.507812 87.84375 -58.671875 87.84375 -55.390625 L 87.84375 0 L 64.15625 0 L 64.15625 -56.859375 C 64.15625 -61.335938 62.828125 -64.898438 60.171875 -67.546875 C 57.523438 -70.203125 54.101562 -71.53125 49.90625 -71.53125 C 47.007812 -71.53125 44.398438 -70.875 42.078125 -69.5625 C 39.753906 -68.25 37.910156 -66.320312 36.546875 -63.78125 C 35.179688 -61.25 34.5 -58.125 34.5 -54.40625 L 34.5 0 Z M 10.078125 0 "/></g></g></g><g fill="#2b364c" fill-opacity="1"><g transform="translate(417.578179, 161.96925)"><g><path d="M 10.078125 0 L 10.078125 -90.46875 L 34.5 -90.46875 L 34.5 0 Z M 22.296875 -102.171875 C 18.523438 -102.171875 15.3125 -103.398438 12.65625 -105.859375 C 10.007812 -108.316406 8.6875 -111.320312 8.6875 -114.875 C 8.6875 -118.425781 10.007812 -121.429688 12.65625 -123.890625 C 15.3125 -126.347656 18.523438 -127.578125 22.296875 -127.578125 C 26.054688 -127.578125 29.25 -126.347656 31.875 -123.890625 C 34.5 -121.429688 35.8125 -118.425781 35.8125 -114.875 C 35.8125 -111.320312 34.5 -108.316406 31.875 -105.859375 C 29.25 -103.398438 26.054688 -102.171875 22.296875 -102.171875 Z M 22.296875 -102.171875 "/></g></g></g><g fill="#2b364c" fill-opacity="1"><g transform="translate(462.149481, 161.96925)"><g><path d="M 34.5 -51.953125 L 34.5 0 L 10.078125 0 L 10.078125 -90.46875 L 33.34375 -90.46875 L 33.671875 -67.6875 L 31.625 -67.6875 C 34.082031 -75.332031 37.78125 -81.253906 42.71875 -85.453125 C 47.664062 -89.660156 54.019531 -91.765625 61.78125 -91.765625 C 68.0625 -91.765625 73.550781 -90.398438 78.25 -87.671875 C 82.945312 -84.941406 86.578125 -81.007812 89.140625 -75.875 C 91.710938 -70.738281 93 -64.566406 93 -57.359375 L 93 0 L 68.578125 0 L 68.578125 -53.015625 C 68.578125 -58.753906 67.128906 -63.21875 64.234375 -66.40625 C 61.335938 -69.601562 57.296875 -71.203125 52.109375 -71.203125 C 48.671875 -71.203125 45.625 -70.453125 42.96875 -68.953125 C 40.320312 -67.453125 38.25 -65.28125 36.75 -62.4375 C 35.25 -59.59375 34.5 -56.097656 34.5 -51.953125 Z M 34.5 -51.953125 "/></g></g></g><g fill="#2b70e4" fill-opacity="1"><g transform="translate(565.234685, 161.96925)"><g><path d="M 29 -27.125 L 29 -51.78125 C 31.570312 -56.039062 34.113281 -60.039062 36.625 -63.78125 C 39.132812 -67.53125 41.8125 -71.257812 44.65625 -74.96875 C 47.5 -78.6875 50.695312 -82.675781 54.25 -86.9375 L 84.15625 -122.09375 L 114.71875 -122.09375 L 63.171875 -62.515625 L 61.125 -63.09375 Z M 10.5625 0 L 10.5625 -122.09375 L 35.640625 -122.09375 L 35.640625 -88.65625 L 35.3125 -57.609375 L 35.640625 -45.390625 L 35.640625 0 Z M 86.53125 0 L 50.234375 -55.140625 L 65.875 -73.90625 L 115.9375 0 Z M 86.53125 0 "/></g></g></g><g fill="#2b70e4" fill-opacity="1"><g transform="translate(684.610412, 161.96925)"><g><path d="M 34.5 -122.09375 L 34.5 0 L 10.078125 0 L 10.078125 -122.09375 Z M 34.5 -122.09375 "/></g></g></g><g fill="#2b70e4" fill-opacity="1"><g transform="translate(729.181714, 161.96925)"><g><path d="M 10.078125 0 L 10.078125 -90.46875 L 34.5 -90.46875 L 34.5 0 Z M 22.296875 -102.171875 C 18.523438 -102.171875 15.3125 -103.398438 12.65625 -105.859375 C 10.007812 -108.316406 8.6875 -111.320312 8.6875 -114.875 C 8.6875 -118.425781 10.007812 -121.429688 12.65625 -123.890625 C 15.3125 -126.347656 18.523438 -127.578125 22.296875 -127.578125 C 26.054688 -127.578125 29.25 -126.347656 31.875 -123.890625 C 34.5 -121.429688 35.8125 -118.425781 35.8125 -114.875 C 35.8125 -111.320312 34.5 -108.316406 31.875 -105.859375 C 29.25 -103.398438 26.054688 -102.171875 22.296875 -102.171875 Z M 22.296875 -102.171875 "/></g></g></g><g fill="#2b70e4" fill-opacity="1"><g transform="translate(773.753015, 161.96925)"><g><path d="M 50.71875 1.796875 C 41.65625 1.796875 33.789062 -0.15625 27.125 -4.0625 C 20.457031 -7.96875 15.304688 -13.425781 11.671875 -20.4375 C 8.046875 -27.457031 6.234375 -35.613281 6.234375 -44.90625 C 6.234375 -54.25 8.046875 -62.441406 11.671875 -69.484375 C 15.304688 -76.535156 20.457031 -82.007812 27.125 -85.90625 C 33.789062 -89.8125 41.65625 -91.765625 50.71875 -91.765625 C 56.238281 -91.765625 61.304688 -91.039062 65.921875 -89.59375 C 70.535156 -88.144531 74.617188 -86.054688 78.171875 -83.328125 C 81.722656 -80.597656 84.628906 -77.304688 86.890625 -73.453125 C 89.160156 -69.609375 90.675781 -65.28125 91.4375 -60.46875 L 68.5 -57.1875 C 68.007812 -59.539062 67.269531 -61.644531 66.28125 -63.5 C 65.300781 -65.363281 64.070312 -66.960938 62.59375 -68.296875 C 61.125 -69.628906 59.421875 -70.648438 57.484375 -71.359375 C 55.546875 -72.078125 53.375 -72.4375 50.96875 -72.4375 C 46.65625 -72.4375 43.035156 -71.285156 40.109375 -68.984375 C 37.179688 -66.691406 34.953125 -63.484375 33.421875 -59.359375 C 31.898438 -55.234375 31.140625 -50.441406 31.140625 -44.984375 C 31.140625 -39.578125 31.898438 -34.8125 33.421875 -30.6875 C 34.953125 -26.5625 37.179688 -23.335938 40.109375 -21.015625 C 43.035156 -18.691406 46.65625 -17.53125 50.96875 -17.53125 C 53.375 -17.53125 55.546875 -17.898438 57.484375 -18.640625 C 59.421875 -19.378906 61.140625 -20.429688 62.640625 -21.796875 C 64.140625 -23.160156 65.394531 -24.8125 66.40625 -26.75 C 67.414062 -28.6875 68.140625 -30.882812 68.578125 -33.34375 L 91.53125 -29.984375 C 90.820312 -25.128906 89.332031 -20.757812 87.0625 -16.875 C 84.789062 -13 81.878906 -9.65625 78.328125 -6.84375 C 74.785156 -4.03125 70.675781 -1.882812 66 -0.40625 C 61.332031 1.0625 56.238281 1.796875 50.71875 1.796875 Z M 50.71875 1.796875 "/></g></g></g><g fill="#2b70e4" fill-opacity="1"><g transform="translate(871.252739, 161.96925)"><g><path d="M 32.203125 -26.390625 L 32.203125 -55.71875 L 35.71875 -55.71875 L 65.71875 -90.46875 L 94.15625 -90.46875 L 54.65625 -45.0625 L 48.921875 -45.0625 Z M 10.078125 0 L 10.078125 -122.09375 L 34.5 -122.09375 L 34.5 0 Z M 67.109375 0 L 39.65625 -39.578125 L 55.96875 -56.953125 L 95.875 0 Z M 67.109375 0 "/></g></g></g></g></g></svg>