<svg xmlns="http://www.w3.org/2000/svg" xmlns:xlink="http://www.w3.org/1999/xlink" width="1263" zoomAndPan="magnify" viewBox="128 614 1263 305" height="305" preserveAspectRatio="xMidYMid meet" version="1.0"><defs><g/><clipPath id="7c820b95d2"><path d="M 1026 106 L 1227.207031 106 L 1227.207031 297.359375 L 1026 297.359375 Z M 1026 106 " clip-rule="nonzero"/></clipPath><clipPath id="bffaf55d99"><path d="M 1052 57.097656 L 1066 57.097656 L 1066 87 L 1052 87 Z M 1052 57.097656 " clip-rule="nonzero"/></clipPath><clipPath id="73ec1d9fa2"><path d="M 978.039062 103 L 1008 103 L 1008 117 L 978.039062 117 Z M 978.039062 103 " clip-rule="nonzero"/></clipPath><clipPath id="4021a466ca"><rect x="0" width="1228" y="0" height="298"/></clipPath></defs><g transform="matrix(1, 0, 0, 1, 141, 600)"><g clip-path="url(#4021a466ca)"><g fill="#2b364c" fill-opacity="1"><g transform="translate(1.714413, 161.970621)"><g><path d="M 5.578125 -101.109375 L 5.578125 -122.09375 L 105.203125 -122.09375 L 105.203125 -101.109375 L 68.015625 -101.109375 L 68.015625 0 L 42.9375 0 L 42.9375 -101.109375 Z M 5.578125 -101.109375 "/></g></g></g><g fill="#2b364c" fill-opacity="1"><g transform="translate(97.820663, 161.970621)"><g><path d="M 51.046875 1.796875 C 41.816406 1.796875 33.851562 -0.113281 27.15625 -3.9375 C 20.46875 -7.757812 15.304688 -13.164062 11.671875 -20.15625 C 8.046875 -27.144531 6.234375 -35.367188 6.234375 -44.828125 C 6.234375 -54.160156 8.035156 -62.335938 11.640625 -69.359375 C 15.242188 -76.378906 20.320312 -81.867188 26.875 -85.828125 C 33.425781 -89.785156 41.101562 -91.765625 49.90625 -91.765625 C 55.96875 -91.765625 61.59375 -90.78125 66.78125 -88.8125 C 71.96875 -86.851562 76.515625 -83.945312 80.421875 -80.09375 C 84.328125 -76.238281 87.359375 -71.429688 89.515625 -65.671875 C 91.671875 -59.910156 92.75 -53.257812 92.75 -45.71875 L 92.75 -38.921875 L 15.984375 -38.921875 L 15.984375 -54.328125 L 80.875 -54.328125 L 69.484375 -50.3125 C 69.484375 -55.007812 68.742188 -59.078125 67.265625 -62.515625 C 65.796875 -65.960938 63.625 -68.628906 60.75 -70.515625 C 57.882812 -72.398438 54.347656 -73.34375 50.140625 -73.34375 C 45.941406 -73.34375 42.363281 -72.382812 39.40625 -70.46875 C 36.457031 -68.550781 34.203125 -65.925781 32.640625 -62.59375 C 31.085938 -59.269531 30.3125 -55.445312 30.3125 -51.125 L 30.3125 -40.3125 C 30.3125 -35.226562 31.1875 -30.910156 32.9375 -27.359375 C 34.6875 -23.816406 37.160156 -21.128906 40.359375 -19.296875 C 43.554688 -17.460938 47.285156 -16.546875 51.546875 -16.546875 C 54.441406 -16.546875 57.078125 -16.96875 59.453125 -17.8125 C 61.828125 -18.664062 63.847656 -19.894531 65.515625 -21.5 C 67.179688 -23.113281 68.453125 -25.097656 69.328125 -27.453125 L 91.53125 -24.25 C 90.101562 -19.007812 87.546875 -14.4375 83.859375 -10.53125 C 80.171875 -6.625 75.554688 -3.59375 70.015625 -1.4375 C 64.472656 0.714844 58.148438 1.796875 51.046875 1.796875 Z M 51.046875 1.796875 "/></g></g></g><g fill="#2b364c" fill-opacity="1"><g transform="translate(196.467443, 161.970621)"><g><path d="M 10.078125 0 L 10.078125 -90.46875 L 33.765625 -90.46875 L 33.765625 -74.8125 L 34.578125 -74.8125 C 36.210938 -80.332031 38.941406 -84.5 42.765625 -87.3125 C 46.597656 -90.125 51.132812 -91.53125 56.375 -91.53125 C 57.6875 -91.53125 59.050781 -91.472656 60.46875 -91.359375 C 61.894531 -91.253906 63.125 -91.09375 64.15625 -90.875 L 64.15625 -69.234375 C 63.125 -69.566406 61.582031 -69.828125 59.53125 -70.015625 C 57.476562 -70.203125 55.5 -70.296875 53.59375 -70.296875 C 49.988281 -70.296875 46.722656 -69.503906 43.796875 -67.921875 C 40.867188 -66.335938 38.585938 -64.097656 36.953125 -61.203125 C 35.316406 -58.304688 34.5 -54.894531 34.5 -50.96875 L 34.5 0 Z M 10.078125 0 "/></g></g></g><g fill="#2b364c" fill-opacity="1"><g transform="translate(264.79926, 161.970621)"><g><path d="M 10.078125 0 L 10.078125 -90.46875 L 32.9375 -90.46875 L 33.921875 -68.421875 L 32.203125 -68.421875 C 33.617188 -73.878906 35.707031 -78.34375 38.46875 -81.8125 C 41.226562 -85.28125 44.460938 -87.832031 48.171875 -89.46875 C 51.890625 -91.113281 55.796875 -91.9375 59.890625 -91.9375 C 66.453125 -91.9375 71.847656 -89.882812 76.078125 -85.78125 C 80.316406 -81.6875 83.304688 -75.515625 85.046875 -67.265625 L 82.265625 -67.265625 C 83.523438 -72.835938 85.671875 -77.441406 88.703125 -81.078125 C 91.734375 -84.710938 95.335938 -87.429688 99.515625 -89.234375 C 103.691406 -91.035156 108.128906 -91.9375 112.828125 -91.9375 C 118.398438 -91.9375 123.382812 -90.71875 127.78125 -88.28125 C 132.175781 -85.851562 135.644531 -82.332031 138.1875 -77.71875 C 140.726562 -73.101562 142 -67.460938 142 -60.796875 L 142 0 L 117.5 0 L 117.5 -56.125 C 117.5 -61.3125 116.101562 -65.175781 113.3125 -67.71875 C 110.53125 -70.257812 107.09375 -71.53125 103 -71.53125 C 99.882812 -71.53125 97.191406 -70.859375 94.921875 -69.515625 C 92.660156 -68.179688 90.914062 -66.3125 89.6875 -63.90625 C 88.457031 -61.507812 87.84375 -58.671875 87.84375 -55.390625 L 87.84375 0 L 64.15625 0 L 64.15625 -56.859375 C 64.15625 -61.335938 62.828125 -64.898438 60.171875 -67.546875 C 57.523438 -70.203125 54.101562 -71.53125 49.90625 -71.53125 C 47.007812 -71.53125 44.398438 -70.875 42.078125 -69.5625 C 39.753906 -68.25 37.910156 -66.320312 36.546875 -63.78125 C 35.179688 -61.25 34.5 -58.125 34.5 -54.40625 L 34.5 0 Z M 10.078125 0 "/></g></g></g><g fill="#2b364c" fill-opacity="1"><g transform="translate(416.784137, 161.970621)"><g><path d="M 10.078125 0 L 10.078125 -90.46875 L 34.5 -90.46875 L 34.5 0 Z M 22.296875 -102.171875 C 18.523438 -102.171875 15.3125 -103.398438 12.65625 -105.859375 C 10.007812 -108.316406 8.6875 -111.320312 8.6875 -114.875 C 8.6875 -118.425781 10.007812 -121.429688 12.65625 -123.890625 C 15.3125 -126.347656 18.523438 -127.578125 22.296875 -127.578125 C 26.054688 -127.578125 29.25 -126.347656 31.875 -123.890625 C 34.5 -121.429688 35.8125 -118.425781 35.8125 -114.875 C 35.8125 -111.320312 34.5 -108.316406 31.875 -105.859375 C 29.25 -103.398438 26.054688 -102.171875 22.296875 -102.171875 Z M 22.296875 -102.171875 "/></g></g></g><g fill="#2b364c" fill-opacity="1"><g transform="translate(461.355439, 161.970621)"><g><path d="M 34.5 -51.953125 L 34.5 0 L 10.078125 0 L 10.078125 -90.46875 L 33.34375 -90.46875 L 33.671875 -67.6875 L 31.625 -67.6875 C 34.082031 -75.332031 37.78125 -81.253906 42.71875 -85.453125 C 47.664062 -89.660156 54.019531 -91.765625 61.78125 -91.765625 C 68.0625 -91.765625 73.550781 -90.398438 78.25 -87.671875 C 82.945312 -84.941406 86.578125 -81.007812 89.140625 -75.875 C 91.710938 -70.738281 93 -64.566406 93 -57.359375 L 93 0 L 68.578125 0 L 68.578125 -53.015625 C 68.578125 -58.753906 67.128906 -63.21875 64.234375 -66.40625 C 61.335938 -69.601562 57.296875 -71.203125 52.109375 -71.203125 C 48.671875 -71.203125 45.625 -70.453125 42.96875 -68.953125 C 40.320312 -67.453125 38.25 -65.28125 36.75 -62.4375 C 35.25 -59.59375 34.5 -56.097656 34.5 -51.953125 Z M 34.5 -51.953125 "/></g></g></g><g fill="#2b70e4" fill-opacity="1"><g transform="translate(564.440643, 161.970621)"><g><path d="M 29 -27.125 L 29 -51.78125 C 31.570312 -56.039062 34.113281 -60.039062 36.625 -63.78125 C 39.132812 -67.53125 41.8125 -71.257812 44.65625 -74.96875 C 47.5 -78.6875 50.695312 -82.675781 54.25 -86.9375 L 84.15625 -122.09375 L 114.71875 -122.09375 L 63.171875 -62.515625 L 61.125 -63.09375 Z M 10.5625 0 L 10.5625 -122.09375 L 35.640625 -122.09375 L 35.640625 -88.65625 L 35.3125 -57.609375 L 35.640625 -45.390625 L 35.640625 0 Z M 86.53125 0 L 50.234375 -55.140625 L 65.875 -73.90625 L 115.9375 0 Z M 86.53125 0 "/></g></g></g><g fill="#2b70e4" fill-opacity="1"><g transform="translate(683.81637, 161.970621)"><g><path d="M 34.5 -122.09375 L 34.5 0 L 10.078125 0 L 10.078125 -122.09375 Z M 34.5 -122.09375 "/></g></g></g><g fill="#2b70e4" fill-opacity="1"><g transform="translate(728.387671, 161.970621)"><g><path d="M 10.078125 0 L 10.078125 -90.46875 L 34.5 -90.46875 L 34.5 0 Z M 22.296875 -102.171875 C 18.523438 -102.171875 15.3125 -103.398438 12.65625 -105.859375 C 10.007812 -108.316406 8.6875 -111.320312 8.6875 -114.875 C 8.6875 -118.425781 10.007812 -121.429688 12.65625 -123.890625 C 15.3125 -126.347656 18.523438 -127.578125 22.296875 -127.578125 C 26.054688 -127.578125 29.25 -126.347656 31.875 -123.890625 C 34.5 -121.429688 35.8125 -118.425781 35.8125 -114.875 C 35.8125 -111.320312 34.5 -108.316406 31.875 -105.859375 C 29.25 -103.398438 26.054688 -102.171875 22.296875 -102.171875 Z M 22.296875 -102.171875 "/></g></g></g><g fill="#2b70e4" fill-opacity="1"><g transform="translate(772.958973, 161.970621)"><g><path d="M 50.71875 1.796875 C 41.65625 1.796875 33.789062 -0.15625 27.125 -4.0625 C 20.457031 -7.96875 15.304688 -13.425781 11.671875 -20.4375 C 8.046875 -27.457031 6.234375 -35.613281 6.234375 -44.90625 C 6.234375 -54.25 8.046875 -62.441406 11.671875 -69.484375 C 15.304688 -76.535156 20.457031 -82.007812 27.125 -85.90625 C 33.789062 -89.8125 41.65625 -91.765625 50.71875 -91.765625 C 56.238281 -91.765625 61.304688 -91.039062 65.921875 -89.59375 C 70.535156 -88.144531 74.617188 -86.054688 78.171875 -83.328125 C 81.722656 -80.597656 84.628906 -77.304688 86.890625 -73.453125 C 89.160156 -69.609375 90.675781 -65.28125 91.4375 -60.46875 L 68.5 -57.1875 C 68.007812 -59.539062 67.269531 -61.644531 66.28125 -63.5 C 65.300781 -65.363281 64.070312 -66.960938 62.59375 -68.296875 C 61.125 -69.628906 59.421875 -70.648438 57.484375 -71.359375 C 55.546875 -72.078125 53.375 -72.4375 50.96875 -72.4375 C 46.65625 -72.4375 43.035156 -71.285156 40.109375 -68.984375 C 37.179688 -66.691406 34.953125 -63.484375 33.421875 -59.359375 C 31.898438 -55.234375 31.140625 -50.441406 31.140625 -44.984375 C 31.140625 -39.578125 31.898438 -34.8125 33.421875 -30.6875 C 34.953125 -26.5625 37.179688 -23.335938 40.109375 -21.015625 C 43.035156 -18.691406 46.65625 -17.53125 50.96875 -17.53125 C 53.375 -17.53125 55.546875 -17.898438 57.484375 -18.640625 C 59.421875 -19.378906 61.140625 -20.429688 62.640625 -21.796875 C 64.140625 -23.160156 65.394531 -24.8125 66.40625 -26.75 C 67.414062 -28.6875 68.140625 -30.882812 68.578125 -33.34375 L 91.53125 -29.984375 C 90.820312 -25.128906 89.332031 -20.757812 87.0625 -16.875 C 84.789062 -13 81.878906 -9.65625 78.328125 -6.84375 C 74.785156 -4.03125 70.675781 -1.882812 66 -0.40625 C 61.332031 1.0625 56.238281 1.796875 50.71875 1.796875 Z M 50.71875 1.796875 "/></g></g></g><g fill="#2b70e4" fill-opacity="1"><g transform="translate(870.458697, 161.970621)"><g><path d="M 32.203125 -26.390625 L 32.203125 -55.71875 L 35.71875 -55.71875 L 65.71875 -90.46875 L 94.15625 -90.46875 L 54.65625 -45.0625 L 48.921875 -45.0625 Z M 10.078125 0 L 10.078125 -122.09375 L 34.5 -122.09375 L 34.5 0 Z M 67.109375 0 L 39.65625 -39.578125 L 55.96875 -56.953125 L 95.875 0 Z M 67.109375 0 "/></g></g></g><g clip-path="url(#7c820b95d2)"><path fill="#2b364c" d="M 1219.476562 198.511719 C 1207.652344 178.15625 1195.804688 157.8125 1184.09375 137.386719 C 1180.007812 130.265625 1173.890625 126.515625 1165.882812 126.730469 C 1158.027344 126.941406 1152.132812 130.910156 1149 138.347656 C 1148.273438 140.070312 1147.597656 140.410156 1145.765625 139.410156 C 1135.328125 133.714844 1123.085938 137.957031 1118.460938 148.832031 C 1117.675781 150.683594 1117.03125 150.40625 1115.429688 149.839844 C 1112.265625 148.714844 1108.925781 147.414062 1105.648438 147.386719 C 1098.28125 147.335938 1092.550781 150.664062 1089.058594 157.367188 C 1088.777344 157.910156 1088.167969 158.285156 1087.714844 158.742188 C 1087.285156 158.265625 1086.777344 157.84375 1086.449219 157.308594 C 1085.828125 156.296875 1085.34375 155.207031 1084.75 154.179688 C 1077.476562 141.601562 1070.265625 128.984375 1062.898438 116.460938 C 1057.5625 107.386719 1048.160156 104.363281 1038.417969 108.351562 C 1028.972656 112.222656 1023.984375 124.1875 1028.542969 133.316406 C 1032.296875 140.828125 1036.761719 147.988281 1040.992188 155.257812 C 1053.566406 176.851562 1066.1875 198.421875 1078.765625 220.011719 C 1079.464844 221.210938 1079.980469 222.519531 1080.894531 224.4375 C 1079.351562 224.195312 1078.667969 224.183594 1078.050781 223.972656 C 1071.933594 221.875 1065.777344 219.878906 1059.734375 217.585938 C 1053.433594 215.195312 1047.121094 214.421875 1040.730469 216.878906 C 1032.355469 220.097656 1026.664062 228.847656 1026.820312 237.621094 C 1026.992188 247.65625 1031.769531 255.167969 1040.820312 258.6875 C 1054.738281 264.09375 1068.683594 269.433594 1082.636719 274.753906 C 1099.214844 281.074219 1115.785156 287.421875 1132.414062 293.609375 C 1144.789062 298.210938 1157.476562 298.558594 1169.835938 294.097656 C 1181.816406 289.773438 1193.121094 283.855469 1203.1875 275.929688 C 1214.261719 267.214844 1222.46875 256.398438 1225.816406 242.566406 C 1229.550781 227.136719 1227.519531 212.363281 1219.476562 198.511719 Z M 1220.179688 235.3125 C 1218.777344 245.476562 1214.28125 254.300781 1207.554688 262.1875 C 1198.8125 272.429688 1187.25 278.351562 1175.535156 284.175781 C 1165.324219 289.253906 1154.671875 291.988281 1143.304688 289.273438 C 1137.769531 287.949219 1132.34375 286.042969 1127.003906 284.039062 C 1101.269531 274.382812 1075.574219 264.613281 1049.882812 254.855469 C 1047.253906 253.855469 1044.652344 252.757812 1042.136719 251.515625 C 1035.75 248.355469 1032.644531 241.503906 1034.210938 234.308594 C 1035.613281 227.882812 1041.609375 222.761719 1048.191406 222.292969 C 1053.289062 221.933594 1057.992188 223.472656 1062.660156 225.171875 C 1072.84375 228.878906 1083.011719 232.644531 1093.1875 236.382812 C 1094.191406 236.753906 1095.207031 237.082031 1096.21875 237.433594 C 1096.382812 237.226562 1096.550781 237.019531 1096.714844 236.8125 C 1095.1875 234.097656 1093.691406 231.363281 1092.121094 228.667969 C 1077.421875 203.460938 1062.710938 178.253906 1048 153.054688 C 1043.964844 146.140625 1039.832031 139.289062 1035.890625 132.324219 C 1033.5 128.09375 1033.410156 123.71875 1036.03125 119.472656 C 1038.617188 115.28125 1042.484375 113.542969 1047.3125 113.890625 C 1051.375 114.179688 1054.292969 116.28125 1056.339844 119.765625 C 1063.742188 132.375 1071.222656 144.941406 1078.617188 157.558594 C 1085.925781 170.035156 1093.167969 182.550781 1100.441406 195.046875 C 1100.828125 195.710938 1101.242188 196.355469 1101.671875 196.988281 C 1102.910156 198.820312 1104.476562 199.765625 1106.671875 198.636719 C 1108.496094 197.695312 1108.886719 195.867188 1107.632812 193.539062 C 1105.898438 190.316406 1104.027344 187.167969 1102.214844 183.988281 C 1099.898438 179.921875 1097.457031 175.921875 1095.296875 171.777344 C 1092.628906 166.65625 1093.75 161.105469 1097.925781 157.378906 C 1101.878906 153.851562 1108.046875 153.097656 1112.402344 156.15625 C 1114.472656 157.609375 1116.136719 159.878906 1117.476562 162.082031 C 1121.890625 169.351562 1126.070312 176.761719 1130.34375 184.117188 C 1131.75 186.542969 1133.785156 187.292969 1135.851562 186.15625 C 1137.652344 185.164062 1138.070312 183.199219 1136.722656 180.839844 C 1133.132812 174.5625 1129.429688 168.347656 1125.808594 162.089844 C 1122.464844 156.3125 1124.214844 149.308594 1129.828125 145.773438 C 1135.417969 142.257812 1142.636719 143.691406 1146.261719 149.375 C 1150.425781 155.898438 1154.285156 162.617188 1158.277344 169.25 C 1158.585938 169.757812 1158.886719 170.277344 1159.21875 170.769531 C 1160.59375 172.816406 1162.421875 173.378906 1164.203125 172.320312 C 1165.996094 171.25 1166.441406 169.410156 1165.1875 167.199219 C 1162.585938 162.609375 1159.746094 158.144531 1157.261719 153.492188 C 1156.085938 151.292969 1154.996094 148.828125 1154.753906 146.394531 C 1154.191406 140.78125 1157.878906 135.765625 1163.179688 134.128906 C 1168.230469 132.570312 1173.90625 134.550781 1176.734375 139.316406 C 1184.296875 152.042969 1191.6875 164.875 1199.148438 177.664062 C 1203.90625 185.820312 1208.703125 193.957031 1213.414062 202.144531 C 1219.335938 212.445312 1221.796875 223.5625 1220.179688 235.3125 Z M 1220.179688 235.3125 " fill-opacity="1" fill-rule="nonzero"/></g><path fill="#2b364c" d="M 1027.082031 86.179688 C 1023.238281 79.402344 1019.421875 72.605469 1015.484375 65.878906 C 1014.429688 64.082031 1012.71875 63.363281 1010.667969 64.433594 C 1008.847656 65.382812 1008.164062 67.417969 1009.265625 69.429688 C 1011.425781 73.363281 1013.769531 77.199219 1016.046875 81.070312 C 1017.71875 83.914062 1019.367188 86.773438 1021.113281 89.574219 C 1022.003906 91.003906 1023.382812 91.820312 1025.015625 90.898438 C 1026.152344 90.257812 1027.054688 89.199219 1027.976562 88.398438 C 1027.523438 87.253906 1027.367188 86.679688 1027.082031 86.179688 Z M 1027.082031 86.179688 " fill-opacity="1" fill-rule="nonzero"/><g clip-path="url(#bffaf55d99)"><path fill="#2b364c" d="M 1055.25 86.300781 C 1057.585938 87.085938 1059.320312 85.957031 1060.0625 83.175781 C 1061.492188 77.84375 1062.917969 72.511719 1064.300781 67.171875 C 1064.851562 65.03125 1065.292969 62.863281 1065.957031 59.953125 C 1065.191406 59.253906 1064.3125 57.996094 1063.109375 57.46875 C 1061.496094 56.753906 1059.804688 57.234375 1059.117188 59.101562 C 1058.390625 61.089844 1057.832031 63.148438 1057.304688 65.199219 C 1055.886719 70.71875 1054.515625 76.25 1053.140625 81.777344 C 1052.628906 83.835938 1052.984375 85.539062 1055.25 86.300781 Z M 1055.25 86.300781 " fill-opacity="1" fill-rule="nonzero"/></g><g clip-path="url(#73ec1d9fa2)"><path fill="#2b364c" d="M 1003.554688 116.566406 C 1005.882812 117.109375 1007.785156 115.582031 1007.789062 112.65625 C 1007.371094 112.140625 1006.601562 111.117188 1005.734375 110.175781 C 1005.476562 109.898438 1004.96875 109.820312 1004.558594 109.710938 C 997.375 107.808594 990.195312 105.886719 983 104.039062 C 980.203125 103.320312 978.765625 104.097656 978.199219 106.382812 C 977.632812 108.675781 978.566406 109.964844 981.261719 110.699219 C 983.976562 111.4375 986.671875 112.261719 989.394531 112.976562 C 994.101562 114.214844 998.8125 115.457031 1003.554688 116.566406 Z M 1003.554688 116.566406 " fill-opacity="1" fill-rule="nonzero"/></g><path fill="#2b364c" d="M 1006.890625 142.828125 C 1000.199219 146.515625 993.546875 150.273438 986.910156 154.054688 C 984.851562 155.226562 984.316406 157.085938 985.277344 159.015625 C 986.195312 160.851562 987.851562 161.417969 990.039062 160.226562 C 996.828125 156.527344 1003.566406 152.742188 1010.253906 148.867188 C 1011.152344 148.347656 1011.652344 147.132812 1011.992188 146.683594 C 1012.109375 143.082031 1009.5 141.394531 1006.890625 142.828125 Z M 1006.890625 142.828125 " fill-opacity="1" fill-rule="nonzero"/><path fill="#2b364c" d="M 1082 104.832031 C 1088.789062 101.132812 1095.527344 97.347656 1102.214844 93.476562 C 1103.117188 92.953125 1103.613281 91.738281 1103.957031 91.292969 C 1104.074219 87.6875 1101.460938 86 1098.851562 87.4375 C 1092.160156 91.121094 1085.507812 94.878906 1078.871094 98.660156 C 1076.8125 99.835938 1076.277344 101.695312 1077.238281 103.625 C 1078.15625 105.460938 1079.8125 106.023438 1082 104.832031 Z M 1082 104.832031 " fill-opacity="1" fill-rule="nonzero"/></g></g></svg>