<svg xmlns="http://www.w3.org/2000/svg" width="320" viewBox="1084.59 617.65 320.00 320.00" height="320" version="1.0"><defs><clipPath id="7c820b95d2"><path d="M 1026 106 L 1227.207031 106 L 1227.207031 297.359375 L 1026 297.359375 Z M 1026 106 " clip-rule="nonzero" /></clipPath><clipPath id="bffaf55d99"><path d="M 1052 57.097656 L 1066 57.097656 L 1066 87 L 1052 87 Z M 1052 57.097656 " clip-rule="nonzero" /></clipPath><clipPath id="73ec1d9fa2"><path d="M 978.039062 103 L 1008 103 L 1008 117 L 978.039062 117 Z M 978.039062 103 " clip-rule="nonzero" /></clipPath></defs><g transform="matrix(1, 0, 0, 1, 141, 600)"><g clip-path="url(#7c820b95d2)"><path fill="#2b364c" d="M 1219.476562 198.511719 C 1207.652344 178.15625 1195.804688 157.8125 1184.09375 137.386719 C 1180.007812 130.265625 1173.890625 126.515625 1165.882812 126.730469 C 1158.027344 126.941406 1152.132812 130.910156 1149 138.347656 C 1148.273438 140.070312 1147.597656 140.410156 1145.765625 139.410156 C 1135.328125 133.714844 1123.085938 137.957031 1118.460938 148.832031 C 1117.675781 150.683594 1117.03125 150.40625 1115.429688 149.839844 C 1112.265625 148.714844 1108.925781 147.414062 1105.648438 147.386719 C 1098.28125 147.335938 1092.550781 150.664062 1089.058594 157.367188 C 1088.777344 157.910156 1088.167969 158.285156 1087.714844 158.742188 C 1087.285156 158.265625 1086.777344 157.84375 1086.449219 157.308594 C 1085.828125 156.296875 1085.34375 155.207031 1084.75 154.179688 C 1077.476562 141.601562 1070.265625 128.984375 1062.898438 116.460938 C 1057.5625 107.386719 1048.160156 104.363281 1038.417969 108.351562 C 1028.972656 112.222656 1023.984375 124.1875 1028.542969 133.316406 C 1032.296875 140.828125 1036.761719 147.988281 1040.992188 155.257812 C 1053.566406 176.851562 1066.1875 198.421875 1078.765625 220.011719 C 1079.464844 221.210938 1079.980469 222.519531 1080.894531 224.4375 C 1079.351562 224.195312 1078.667969 224.183594 1078.050781 223.972656 C 1071.933594 221.875 1065.777344 219.878906 1059.734375 217.585938 C 1053.433594 215.195312 1047.121094 214.421875 1040.730469 216.878906 C 1032.355469 220.097656 1026.664062 228.847656 1026.820312 237.621094 C 1026.992188 247.65625 1031.769531 255.167969 1040.820312 258.6875 C 1054.738281 264.09375 1068.683594 269.433594 1082.636719 274.753906 C 1099.214844 281.074219 1115.785156 287.421875 1132.414062 293.609375 C 1144.789062 298.210938 1157.476562 298.558594 1169.835938 294.097656 C 1181.816406 289.773438 1193.121094 283.855469 1203.1875 275.929688 C 1214.261719 267.214844 1222.46875 256.398438 1225.816406 242.566406 C 1229.550781 227.136719 1227.519531 212.363281 1219.476562 198.511719 Z M 1220.179688 235.3125 C 1218.777344 245.476562 1214.28125 254.300781 1207.554688 262.1875 C 1198.8125 272.429688 1187.25 278.351562 1175.535156 284.175781 C 1165.324219 289.253906 1154.671875 291.988281 1143.304688 289.273438 C 1137.769531 287.949219 1132.34375 286.042969 1127.003906 284.039062 C 1101.269531 274.382812 1075.574219 264.613281 1049.882812 254.855469 C 1047.253906 253.855469 1044.652344 252.757812 1042.136719 251.515625 C 1035.75 248.355469 1032.644531 241.503906 1034.210938 234.308594 C 1035.613281 227.882812 1041.609375 222.761719 1048.191406 222.292969 C 1053.289062 221.933594 1057.992188 223.472656 1062.660156 225.171875 C 1072.84375 228.878906 1083.011719 232.644531 1093.1875 236.382812 C 1094.191406 236.753906 1095.207031 237.082031 1096.21875 237.433594 C 1096.382812 237.226562 1096.550781 237.019531 1096.714844 236.8125 C 1095.1875 234.097656 1093.691406 231.363281 1092.121094 228.667969 C 1077.421875 203.460938 1062.710938 178.253906 1048 153.054688 C 1043.964844 146.140625 1039.832031 139.289062 1035.890625 132.324219 C 1033.5 128.09375 1033.410156 123.71875 1036.03125 119.472656 C 1038.617188 115.28125 1042.484375 113.542969 1047.3125 113.890625 C 1051.375 114.179688 1054.292969 116.28125 1056.339844 119.765625 C 1063.742188 132.375 1071.222656 144.941406 1078.617188 157.558594 C 1085.925781 170.035156 1093.167969 182.550781 1100.441406 195.046875 C 1100.828125 195.710938 1101.242188 196.355469 1101.671875 196.988281 C 1102.910156 198.820312 1104.476562 199.765625 1106.671875 198.636719 C 1108.496094 197.695312 1108.886719 195.867188 1107.632812 193.539062 C 1105.898438 190.316406 1104.027344 187.167969 1102.214844 183.988281 C 1099.898438 179.921875 1097.457031 175.921875 1095.296875 171.777344 C 1092.628906 166.65625 1093.75 161.105469 1097.925781 157.378906 C 1101.878906 153.851562 1108.046875 153.097656 1112.402344 156.15625 C 1114.472656 157.609375 1116.136719 159.878906 1117.476562 162.082031 C 1121.890625 169.351562 1126.070312 176.761719 1130.34375 184.117188 C 1131.75 186.542969 1133.785156 187.292969 1135.851562 186.15625 C 1137.652344 185.164062 1138.070312 183.199219 1136.722656 180.839844 C 1133.132812 174.5625 1129.429688 168.347656 1125.808594 162.089844 C 1122.464844 156.3125 1124.214844 149.308594 1129.828125 145.773438 C 1135.417969 142.257812 1142.636719 143.691406 1146.261719 149.375 C 1150.425781 155.898438 1154.285156 162.617188 1158.277344 169.25 C 1158.585938 169.757812 1158.886719 170.277344 1159.21875 170.769531 C 1160.59375 172.816406 1162.421875 173.378906 1164.203125 172.320312 C 1165.996094 171.25 1166.441406 169.410156 1165.1875 167.199219 C 1162.585938 162.609375 1159.746094 158.144531 1157.261719 153.492188 C 1156.085938 151.292969 1154.996094 148.828125 1154.753906 146.394531 C 1154.191406 140.78125 1157.878906 135.765625 1163.179688 134.128906 C 1168.230469 132.570312 1173.90625 134.550781 1176.734375 139.316406 C 1184.296875 152.042969 1191.6875 164.875 1199.148438 177.664062 C 1203.90625 185.820312 1208.703125 193.957031 1213.414062 202.144531 C 1219.335938 212.445312 1221.796875 223.5625 1220.179688 235.3125 Z M 1220.179688 235.3125 " fill-opacity="1" fill-rule="nonzero" /></g><path fill="#2b364c" d="M 1027.082031 86.179688 C 1023.238281 79.402344 1019.421875 72.605469 1015.484375 65.878906 C 1014.429688 64.082031 1012.71875 63.363281 1010.667969 64.433594 C 1008.847656 65.382812 1008.164062 67.417969 1009.265625 69.429688 C 1011.425781 73.363281 1013.769531 77.199219 1016.046875 81.070312 C 1017.71875 83.914062 1019.367188 86.773438 1021.113281 89.574219 C 1022.003906 91.003906 1023.382812 91.820312 1025.015625 90.898438 C 1026.152344 90.257812 1027.054688 89.199219 1027.976562 88.398438 C 1027.523438 87.253906 1027.367188 86.679688 1027.082031 86.179688 Z M 1027.082031 86.179688 " fill-opacity="1" fill-rule="nonzero" /><g clip-path="url(#bffaf55d99)"><path fill="#2b364c" d="M 1055.25 86.300781 C 1057.585938 87.085938 1059.320312 85.957031 1060.0625 83.175781 C 1061.492188 77.84375 1062.917969 72.511719 1064.300781 67.171875 C 1064.851562 65.03125 1065.292969 62.863281 1065.957031 59.953125 C 1065.191406 59.253906 1064.3125 57.996094 1063.109375 57.46875 C 1061.496094 56.753906 1059.804688 57.234375 1059.117188 59.101562 C 1058.390625 61.089844 1057.832031 63.148438 1057.304688 65.199219 C 1055.886719 70.71875 1054.515625 76.25 1053.140625 81.777344 C 1052.628906 83.835938 1052.984375 85.539062 1055.25 86.300781 Z M 1055.25 86.300781 " fill-opacity="1" fill-rule="nonzero" /></g><g clip-path="url(#73ec1d9fa2)"><path fill="#2b364c" d="M 1003.554688 116.566406 C 1005.882812 117.109375 1007.785156 115.582031 1007.789062 112.65625 C 1007.371094 112.140625 1006.601562 111.117188 1005.734375 110.175781 C 1005.476562 109.898438 1004.96875 109.820312 1004.558594 109.710938 C 997.375 107.808594 990.195312 105.886719 983 104.039062 C 980.203125 103.320312 978.765625 104.097656 978.199219 106.382812 C 977.632812 108.675781 978.566406 109.964844 981.261719 110.699219 C 983.976562 111.4375 986.671875 112.261719 989.394531 112.976562 C 994.101562 114.214844 998.8125 115.457031 1003.554688 116.566406 Z M 1003.554688 116.566406 " fill-opacity="1" fill-rule="nonzero" /></g><path fill="#2b364c" d="M 1006.890625 142.828125 C 1000.199219 146.515625 993.546875 150.273438 986.910156 154.054688 C 984.851562 155.226562 984.316406 157.085938 985.277344 159.015625 C 986.195312 160.851562 987.851562 161.417969 990.039062 160.226562 C 996.828125 156.527344 1003.566406 152.742188 1010.253906 148.867188 C 1011.152344 148.347656 1011.652344 147.132812 1011.992188 146.683594 C 1012.109375 143.082031 1009.5 141.394531 1006.890625 142.828125 Z M 1006.890625 142.828125 " fill-opacity="1" fill-rule="nonzero" /><path fill="#2b364c" d="M 1082 104.832031 C 1088.789062 101.132812 1095.527344 97.347656 1102.214844 93.476562 C 1103.117188 92.953125 1103.613281 91.738281 1103.957031 91.292969 C 1104.074219 87.6875 1101.460938 86 1098.851562 87.4375 C 1092.160156 91.121094 1085.507812 94.878906 1078.871094 98.660156 C 1076.8125 99.835938 1076.277344 101.695312 1077.238281 103.625 C 1078.15625 105.460938 1079.8125 106.023438 1082 104.832031 Z M 1082 104.832031 " fill-opacity="1" fill-rule="nonzero" /></g></svg>