<svg xmlns="http://www.w3.org/2000/svg" xmlns:xlink="http://www.w3.org/1999/xlink" width="2000" zoomAndPan="magnify" viewBox="0 0 1500 449.999984" height="600" preserveAspectRatio="xMidYMid meet" version="1.0"><defs><g/><clipPath id="70b4c3e838"><rect x="0" width="1427" y="0" height="299"/></clipPath></defs><g transform="matrix(1, 0, 0, 1, 37, 74)"><g clip-path="url(#70b4c3e838)"><g fill="#2b364c" fill-opacity="1"><g transform="translate(2.848125, 237.79359)"><g><path d="M 8.203125 -148.8125 L 8.203125 -179.6875 L 154.84375 -179.6875 L 154.84375 -148.8125 L 100.09375 -148.8125 L 100.09375 0 L 63.1875 0 L 63.1875 -148.8125 Z M 8.203125 -148.8125 "/></g></g></g><g fill="#2b364c" fill-opacity="1"><g transform="translate(144.301464, 237.79359)"><g><path d="M 75.125 2.65625 C 61.539062 2.65625 49.820312 -0.15625 39.96875 -5.78125 C 30.125 -11.414062 22.53125 -19.378906 17.1875 -29.671875 C 11.84375 -39.960938 9.171875 -52.0625 9.171875 -65.96875 C 9.171875 -79.71875 11.820312 -91.753906 17.125 -102.078125 C 22.425781 -112.410156 29.898438 -120.488281 39.546875 -126.3125 C 49.203125 -132.144531 60.5 -135.0625 73.4375 -135.0625 C 82.363281 -135.0625 90.644531 -133.613281 98.28125 -130.71875 C 105.925781 -127.832031 112.617188 -123.550781 118.359375 -117.875 C 124.109375 -112.207031 128.570312 -105.132812 131.75 -96.65625 C 134.925781 -88.175781 136.515625 -78.390625 136.515625 -67.296875 L 136.515625 -57.28125 L 23.515625 -57.28125 L 23.515625 -79.953125 L 119.03125 -79.953125 L 102.265625 -74.046875 C 102.265625 -80.960938 101.175781 -86.953125 99 -92.015625 C 96.832031 -97.078125 93.640625 -100.992188 89.421875 -103.765625 C 85.203125 -106.546875 80 -107.9375 73.8125 -107.9375 C 67.613281 -107.9375 62.34375 -106.53125 58 -103.71875 C 53.664062 -100.90625 50.351562 -97.046875 48.0625 -92.140625 C 45.769531 -87.234375 44.625 -81.601562 44.625 -75.25 L 44.625 -59.328125 C 44.625 -51.859375 45.910156 -45.507812 48.484375 -40.28125 C 51.054688 -35.050781 54.691406 -31.085938 59.390625 -28.390625 C 64.097656 -25.703125 69.585938 -24.359375 75.859375 -24.359375 C 80.117188 -24.359375 83.992188 -24.976562 87.484375 -26.21875 C 90.984375 -27.46875 93.957031 -29.28125 96.40625 -31.65625 C 98.863281 -34.03125 100.738281 -36.945312 102.03125 -40.40625 L 134.703125 -35.703125 C 132.617188 -27.984375 128.863281 -21.25 123.4375 -15.5 C 118.007812 -9.75 111.210938 -5.285156 103.046875 -2.109375 C 94.890625 1.066406 85.582031 2.65625 75.125 2.65625 Z M 75.125 2.65625 "/></g></g></g><g fill="#2b364c" fill-opacity="1"><g transform="translate(289.494064, 237.79359)"><g><path d="M 14.828125 0 L 14.828125 -133.140625 L 49.6875 -133.140625 L 49.6875 -110.109375 L 50.890625 -110.109375 C 53.304688 -118.222656 57.328125 -124.347656 62.953125 -128.484375 C 68.578125 -132.628906 75.25 -134.703125 82.96875 -134.703125 C 84.894531 -134.703125 86.90625 -134.617188 89 -134.453125 C 91.09375 -134.296875 92.898438 -134.0625 94.421875 -133.75 L 94.421875 -101.90625 C 92.898438 -102.382812 90.628906 -102.765625 87.609375 -103.046875 C 84.597656 -103.328125 81.6875 -103.46875 78.875 -103.46875 C 73.5625 -103.46875 68.753906 -102.300781 64.453125 -99.96875 C 60.148438 -97.644531 56.789062 -94.347656 54.375 -90.078125 C 51.96875 -85.816406 50.765625 -80.796875 50.765625 -75.015625 L 50.765625 0 Z M 14.828125 0 "/></g></g></g><g fill="#2b364c" fill-opacity="1"><g transform="translate(390.067789, 237.79359)"><g><path d="M 14.828125 0 L 14.828125 -133.140625 L 48.484375 -133.140625 L 49.921875 -100.703125 L 47.390625 -100.703125 C 49.484375 -108.742188 52.554688 -115.316406 56.609375 -120.421875 C 60.671875 -125.523438 65.4375 -129.28125 70.90625 -131.6875 C 76.375 -134.101562 82.125 -135.3125 88.15625 -135.3125 C 97.800781 -135.3125 105.738281 -132.296875 111.96875 -126.265625 C 118.207031 -120.234375 122.613281 -111.148438 125.1875 -99.015625 L 121.078125 -99.015625 C 122.929688 -107.210938 126.085938 -113.984375 130.546875 -119.328125 C 135.003906 -124.671875 140.304688 -128.671875 146.453125 -131.328125 C 152.609375 -133.984375 159.144531 -135.3125 166.0625 -135.3125 C 174.257812 -135.3125 181.59375 -133.519531 188.0625 -129.9375 C 194.539062 -126.363281 199.648438 -121.179688 203.390625 -114.390625 C 207.128906 -107.597656 209 -99.296875 209 -89.484375 L 209 0 L 172.9375 0 L 172.9375 -82.609375 C 172.9375 -90.242188 170.882812 -95.929688 166.78125 -99.671875 C 162.6875 -103.410156 157.625 -105.28125 151.59375 -105.28125 C 147.007812 -105.28125 143.046875 -104.296875 139.703125 -102.328125 C 136.367188 -100.359375 133.796875 -97.601562 131.984375 -94.0625 C 130.179688 -90.53125 129.28125 -86.351562 129.28125 -81.53125 L 129.28125 0 L 94.421875 0 L 94.421875 -83.6875 C 94.421875 -90.28125 92.472656 -95.523438 88.578125 -99.421875 C 84.679688 -103.328125 79.632812 -105.28125 73.4375 -105.28125 C 69.175781 -105.28125 65.335938 -104.316406 61.921875 -102.390625 C 58.503906 -100.460938 55.789062 -97.628906 53.78125 -93.890625 C 51.769531 -90.148438 50.765625 -85.546875 50.765625 -80.078125 L 50.765625 0 Z M 14.828125 0 "/></g></g></g><g fill="#2b364c" fill-opacity="1"><g transform="translate(613.765711, 237.79359)"><g><path d="M 14.828125 0 L 14.828125 -133.140625 L 50.765625 -133.140625 L 50.765625 0 Z M 32.8125 -150.390625 C 27.257812 -150.390625 22.53125 -152.195312 18.625 -155.8125 C 14.726562 -159.425781 12.78125 -163.847656 12.78125 -169.078125 C 12.78125 -174.304688 14.726562 -178.726562 18.625 -182.34375 C 22.53125 -185.957031 27.257812 -187.765625 32.8125 -187.765625 C 38.351562 -187.765625 43.050781 -185.957031 46.90625 -182.34375 C 50.769531 -178.726562 52.703125 -174.304688 52.703125 -169.078125 C 52.703125 -163.847656 50.769531 -159.425781 46.90625 -155.8125 C 43.050781 -152.195312 38.351562 -150.390625 32.8125 -150.390625 Z M 32.8125 -150.390625 "/></g></g></g><g fill="#2b364c" fill-opacity="1"><g transform="translate(679.367682, 237.79359)"><g><path d="M 50.765625 -76.453125 L 50.765625 0 L 14.828125 0 L 14.828125 -133.140625 L 49.078125 -133.140625 L 49.5625 -99.609375 L 46.546875 -99.609375 C 50.171875 -110.867188 55.617188 -119.59375 62.890625 -125.78125 C 70.171875 -131.96875 79.519531 -135.0625 90.9375 -135.0625 C 100.175781 -135.0625 108.253906 -133.050781 115.171875 -129.03125 C 122.085938 -125.019531 127.429688 -119.234375 131.203125 -111.671875 C 134.984375 -104.117188 136.875 -95.035156 136.875 -84.421875 L 136.875 0 L 100.9375 0 L 100.9375 -78.03125 C 100.9375 -86.46875 98.804688 -93.035156 94.546875 -97.734375 C 90.285156 -102.441406 84.335938 -104.796875 76.703125 -104.796875 C 71.640625 -104.796875 67.15625 -103.691406 63.25 -101.484375 C 59.351562 -99.273438 56.296875 -96.078125 54.078125 -91.890625 C 51.867188 -87.710938 50.765625 -82.566406 50.765625 -76.453125 Z M 50.765625 -76.453125 "/></g></g></g><g fill="#2b70e4" fill-opacity="1"><g transform="translate(831.092947, 237.79359)"><g><path d="M 42.6875 -39.921875 L 42.6875 -76.21875 C 46.46875 -82.488281 50.207031 -88.375 53.90625 -93.875 C 57.601562 -99.382812 61.539062 -104.875 65.71875 -110.34375 C 69.90625 -115.8125 74.609375 -121.679688 79.828125 -127.953125 L 123.859375 -179.6875 L 168.84375 -179.6875 L 92.984375 -92.015625 L 89.96875 -92.859375 Z M 15.5625 0 L 15.5625 -179.6875 L 52.453125 -179.6875 L 52.453125 -130.484375 L 51.984375 -84.78125 L 52.453125 -66.8125 L 52.453125 0 Z M 127.34375 0 L 73.921875 -81.15625 L 96.953125 -108.78125 L 170.640625 0 Z M 127.34375 0 "/></g></g></g><g fill="#2b70e4" fill-opacity="1"><g transform="translate(1006.795308, 237.79359)"><g><path d="M 50.765625 -179.6875 L 50.765625 0 L 14.828125 0 L 14.828125 -179.6875 Z M 50.765625 -179.6875 "/></g></g></g><g fill="#2b70e4" fill-opacity="1"><g transform="translate(1072.397279, 237.79359)"><g><path d="M 14.828125 0 L 14.828125 -133.140625 L 50.765625 -133.140625 L 50.765625 0 Z M 32.8125 -150.390625 C 27.257812 -150.390625 22.53125 -152.195312 18.625 -155.8125 C 14.726562 -159.425781 12.78125 -163.847656 12.78125 -169.078125 C 12.78125 -174.304688 14.726562 -178.726562 18.625 -182.34375 C 22.53125 -185.957031 27.257812 -187.765625 32.8125 -187.765625 C 38.351562 -187.765625 43.050781 -185.957031 46.90625 -182.34375 C 50.769531 -178.726562 52.703125 -174.304688 52.703125 -169.078125 C 52.703125 -163.847656 50.769531 -159.425781 46.90625 -155.8125 C 43.050781 -152.195312 38.351562 -150.390625 32.8125 -150.390625 Z M 32.8125 -150.390625 "/></g></g></g><g fill="#2b70e4" fill-opacity="1"><g transform="translate(1137.999251, 237.79359)"><g><path d="M 74.65625 2.65625 C 61.300781 2.65625 49.71875 -0.21875 39.90625 -5.96875 C 30.101562 -11.71875 22.53125 -19.757812 17.1875 -30.09375 C 11.84375 -40.425781 9.171875 -52.425781 9.171875 -66.09375 C 9.171875 -79.832031 11.84375 -91.890625 17.1875 -102.265625 C 22.53125 -112.640625 30.101562 -120.695312 39.90625 -126.4375 C 49.71875 -132.1875 61.300781 -135.0625 74.65625 -135.0625 C 82.769531 -135.0625 90.222656 -133.992188 97.015625 -131.859375 C 103.816406 -129.734375 109.828125 -126.660156 115.046875 -122.640625 C 120.273438 -118.628906 124.554688 -113.785156 127.890625 -108.109375 C 131.234375 -102.441406 133.46875 -96.070312 134.59375 -89 L 100.8125 -84.171875 C 100.09375 -87.628906 99.007812 -90.722656 97.5625 -93.453125 C 96.113281 -96.191406 94.300781 -98.546875 92.125 -100.515625 C 89.957031 -102.484375 87.445312 -103.988281 84.59375 -105.03125 C 81.738281 -106.082031 78.546875 -106.609375 75.015625 -106.609375 C 68.660156 -106.609375 63.332031 -104.921875 59.03125 -101.546875 C 54.726562 -98.171875 51.453125 -93.445312 49.203125 -87.375 C 46.953125 -81.300781 45.828125 -74.242188 45.828125 -66.203125 C 45.828125 -58.242188 46.953125 -51.226562 49.203125 -45.15625 C 51.453125 -39.09375 54.726562 -34.351562 59.03125 -30.9375 C 63.332031 -27.519531 68.660156 -25.8125 75.015625 -25.8125 C 78.546875 -25.8125 81.738281 -26.351562 84.59375 -27.4375 C 87.445312 -28.519531 89.976562 -30.066406 92.1875 -32.078125 C 94.40625 -34.085938 96.253906 -36.519531 97.734375 -39.375 C 99.222656 -42.226562 100.289062 -45.460938 100.9375 -49.078125 L 134.703125 -44.140625 C 133.660156 -36.984375 131.46875 -30.550781 128.125 -24.84375 C 124.789062 -19.132812 120.507812 -14.207031 115.28125 -10.0625 C 110.0625 -5.925781 104.015625 -2.769531 97.140625 -0.59375 C 90.265625 1.570312 82.769531 2.65625 74.65625 2.65625 Z M 74.65625 2.65625 "/></g></g></g><g fill="#2b70e4" fill-opacity="1"><g transform="translate(1281.503564, 237.79359)"><g><path d="M 47.390625 -38.828125 L 47.390625 -82 L 52.578125 -82 L 96.71875 -133.140625 L 138.5625 -133.140625 L 80.4375 -66.328125 L 72 -66.328125 Z M 14.828125 0 L 14.828125 -179.6875 L 50.765625 -179.6875 L 50.765625 0 Z M 98.765625 0 L 58.375 -58.25 L 82.375 -83.8125 L 141.09375 0 Z M 98.765625 0 "/></g></g></g></g></g></svg>